# xmcd
# 
# Track frame offsets:
#     150
#     11827
#     27067
#     39582
#     53887
#     67095
#     80205
#     97157
#     110060
#     123650
#     136940
#     149900
#     162615
#     178402
#     191835
#     205905
#     217680
#     229025
#     242975
#     254145
# 
# Disc length: 3643
# 
# Revision: 2
# Processed by: cddbd v1.5.2PL0 Copyright (c) Steve Scherf et al.
# Submitted via: BonkEnc v1.0rc2
# 
DISCID=460e3914
DTITLE=Various Artist - 20 Golden Country Songs
DYEAR=0
DGENRE=Country
TTITLE0=Various Artist - Some Broken Hearts Never Mend
TTITLE1=Various Artist - Rhinestone Cowboy
TTITLE2=Various Artist - Jambalaya
TTITLE3=Various Artist - Red River Valley
TTITLE4=Various Artist - D.I.V.O.R.C.E.
TTITLE5=Various Artist - Mystery Maiden
TTITLE6=Various Artist - Big John
TTITLE7=Various Artist - All The Good Times
TTITLE8=Various Artist - Can You Spare A Dime
TTITLE9=Various Artist - Red Light Lady Love
TTITLE10=Various Artist - Rose Garden
TTITLE11=Various Artist - Fine Country Singin'
TTITLE12=Various Artist - Blanket On The Ground
TTITLE13=Various Artist - Give Me A Shoulder
TTITLE14=Various Artist - Your Foolish Pride
TTITLE15=Various Artist - Stand By Your Man
TTITLE16=Various Artist - Oh Suzanna
TTITLE17=Various Artist - All That Country Loving
TTITLE18=Various Artist - A Thing Called Love
TTITLE19=Various Artist - Coward Of The County
EXTD=
EXTT0=
EXTT1=
EXTT2=
EXTT3=
EXTT4=
EXTT5=
EXTT6=
EXTT7=
EXTT8=
EXTT9=
EXTT10=
EXTT11=
EXTT12=
EXTT13=
EXTT14=
EXTT15=
EXTT16=
EXTT17=
EXTT18=
EXTT19=
PLAYORDER=
